<svg width="85" height="85" viewBox="0 0 85 85" fill="none" xmlns="http://www.w3.org/2000/svg">
<path d="M74.375 26.5625L60.2083 33.6458M60.2083 33.6458L58.4375 34.5313L42.5 42.5M60.2083 33.6458V46.0417M60.2083 33.6458L26.5625 15.9375M42.5 42.5L10.625 26.5625M42.5 42.5V76.1458M55.1721 11.9779L62.2554 15.6967C69.8735 19.6952 73.6844 21.6927 75.8023 25.2875C77.9166 28.8788 77.9166 33.3519 77.9166 42.2875V42.7019C77.9166 51.6446 77.9166 56.1177 75.8023 59.709C73.6844 63.3038 69.8735 65.3048 62.2554 69.3033L55.1721 73.0186C48.9529 76.284 45.8433 77.9167 42.5 77.9167C39.1566 77.9167 36.0471 76.2875 29.8279 73.0221L22.7446 69.3033C15.1264 65.3048 11.3156 63.3073 9.19769 59.7125C7.08331 56.1213 7.08331 51.6481 7.08331 42.7125V42.2981C7.08331 33.3554 7.08331 28.8823 9.19769 25.2911C11.3156 21.6963 15.1264 19.6952 22.7446 15.7002L29.8279 11.9815C36.0471 8.71605 39.1566 7.08334 42.5 7.08334C45.8433 7.08334 48.9529 8.71251 55.1721 11.9779Z" stroke="#ffffff" stroke-width="4" stroke-linecap="round"/>
</svg>
