<svg width="60" height="60" viewBox="0 0 60 60" fill="none" xmlns="http://www.w3.org/2000/svg">
<path d="M21.055 51.545C25.445 53.85 27.64 55 30 55V30L6.595 17.6825C6.56099 17.7379 6.52765 17.7938 6.495 17.85C5 20.385 5 23.5425 5 29.855V30.1475C5 36.4575 5 39.615 6.4925 42.15C7.9875 44.6875 10.6775 46.1 16.055 48.9225L21.055 51.545Z" fill="#D27C2C"/>
<path d="M43.9425 11.08L38.9425 8.455C34.555 6.1525 32.36 5 30 5C27.6375 5 25.445 6.15 21.055 8.455L16.055 11.08C10.795 13.84 8.105 15.25 6.595 17.68L30 30L53.405 17.6825C51.89 15.25 49.205 13.84 43.9425 11.08Z" fill="#DE9B5D"/>
<path d="M53.5075 17.85C53.474 17.7937 53.4399 17.7379 53.405 17.6825L30 30V55C32.36 55 34.555 53.85 38.945 51.545L43.945 48.92C49.3225 46.0975 52.0125 44.6875 53.5075 42.15C55 39.615 55 36.4575 55 30.15V29.8575C55 23.545 55 20.385 53.5075 17.85Z" fill="#DE9B5D"/>
<path d="M15.8075 11.21L16.0575 11.08L19.79 9.12L42.54 21.6325L52.6025 16.605C52.945 16.9925 53.245 17.405 53.5075 17.85C53.8825 18.485 54.1625 19.16 54.3725 19.9125L44.375 24.91V32.5C44.375 32.9973 44.1775 33.4742 43.8258 33.8258C43.4742 34.1775 42.9973 34.375 42.5 34.375C42.0027 34.375 41.5258 34.1775 41.1742 33.8258C40.8225 33.4742 40.625 32.9973 40.625 32.5V26.785L31.875 31.16V54.76C31.2623 54.9172 30.6325 54.9978 30 55C29.38 55 28.7675 54.92 28.125 54.76V31.16L5.63 19.91C5.84 19.16 6.12 18.485 6.495 17.85C6.75529 17.4064 7.05841 16.9894 7.4 16.605L30 27.905L38.465 23.6725L15.8075 11.21Z" fill="#D27C2C"/>
</svg>
